<svg width="576" height="512" viewBox="0 0 576 512" fill="none" xmlns="http://www.w3.org/2000/svg">
<path d="M543.8 287.6C560.8 287.6 575.8 273.6 575.8 255.5C576.8 246.5 572.8 238.5 564.8 231.5L309.5 7C303.5 2 295.5 0 288.5 0C281.5 0 273.5 1 266.5 8L10 231.5C3 238.5 0 246.5 0 255.5C0 273.5 14 287.6 32 287.6H64V393C85.3 380.8 112.1 381.6 132.8 396.1C150.8 408.5 172.9 416.4 192 416.4C213.1 416.4 234 407.9 251.2 396.1C273.3 380.6 302.8 380.6 324.9 396.1C343.3 408.8 364.5 416.4 384.1 416.4C403.1 416.4 425.3 408.5 443.3 396.1C464 381.5 491 380.7 512.4 393.1L511.9 287.5H543.9L543.8 287.6ZM224 216C224 202.7 234.7 192 248 192H328C341.3 192 352 202.7 352 216V296C352 309.3 341.3 320 328 320H248C234.7 320 224 309.3 224 296V216ZM306.5 421.9C295.4 414 280.6 414 269.5 421.9C247 437.4 219.5 448 192 448C165.1 448 136.7 437.2 114.6 421.9C102.7 413.4 86.5 414.1 75.4 423.6C61 435.5 42.9 444.6 24.8 448.8C7.6 452.8 -3.1 470 0.9 487.2C4.9 504.4 22.1 515.1 39.3 511.1C63.8 505.4 84.2 494.6 97.5 486.1C126.5 501.7 159 512 192 512C223.9 512 252.6 502.1 272.4 493.1C278.2 490.4 283.5 487.8 288 485.4C292.5 487.8 297.7 490.5 303.6 493.1C323.4 502.1 352.2 512 384 512C417 512 449.5 501.7 478.5 486.2C491.9 494.6 512.2 505.5 536.7 511.2C553.9 515.2 571.1 504.5 575.1 487.3C579.1 470.1 568.4 452.9 551.2 448.9C533.1 444.7 515 435.6 500.6 423.7C489.5 414.3 473.3 413.6 461.4 422C439.4 437.2 410.9 448 384 448C356.5 448 329 437.4 306.5 421.9Z" fill="url(#paint0_linear_4_5)"/>
<defs>
<linearGradient id="paint0_linear_4_5" x1="287.975" y1="0" x2="287.975" y2="512.038" gradientUnits="userSpaceOnUse">
<stop stop-color="#1D4ED8"/>
<stop offset="1" stop-color="#3B82F6"/>
</linearGradient>
</defs>
</svg>
