<svg width="34" height="50" viewBox="0 0 34 50" fill="none" xmlns="http://www.w3.org/2000/svg">
<path d="M16.8539 50C24.0936 50 29.9625 47.0655 29.9625 43.4457C29.9625 39.8259 24.0936 36.8914 16.8539 36.8914C9.61423 36.8914 3.7453 39.8259 3.7453 43.4457C3.7453 47.0655 9.61423 50 16.8539 50Z" fill="url(#paint0_radial_6_15)"/>
<path d="M33.7079 16.8539C33.7079 23.8077 25.2809 33.7079 18.4145 43.0712C17.5031 44.3196 16.2047 44.3196 15.2934 43.0712C8.42697 33.7079 0 23.995 0 16.8539C0 7.54057 7.54057 0 16.8539 0C26.1673 0 33.7079 7.54057 33.7079 16.8539Z" fill="#1D4ED8"/>
<path opacity="0.25" d="M16.8539 0C7.54057 0 0 7.54057 0 16.8539C0 23.995 8.42697 33.7079 15.2934 43.0712C16.2297 44.3446 17.5031 44.3196 18.4145 43.0712C25.2809 33.7079 33.7079 23.8077 33.7079 16.8539C33.7079 7.54057 26.1673 0 16.8539 0ZM16.8539 1.24844C25.4931 1.24844 32.4594 8.21473 32.4594 16.8539C32.4594 19.8502 30.5868 23.9451 27.7403 28.3895C24.9064 32.834 20.8614 37.628 17.4032 42.3346C17.1536 42.6717 16.9913 42.8464 16.8539 42.9962C16.7166 42.8464 16.5543 42.6717 16.3046 42.3346C12.834 37.6155 9.25094 32.8464 6.26717 28.427C3.27091 24.0075 1.24844 19.9126 1.24844 16.8539C1.24844 8.21473 8.21473 1.24844 16.8539 1.24844Z" fill="#1E3A8A"/>
<mask id="mask0_6_15" style="mask-type:alpha" maskUnits="userSpaceOnUse" x="7" y="7" width="20" height="18">
<path d="M17 25C22.5228 25 27 20.9706 27 16C27 11.0294 22.5228 7 17 7C11.4772 7 7 11.0294 7 16C7 20.9706 11.4772 25 17 25Z" fill="white"/>
</mask>
<g mask="url(#mask0_6_15)">
<path d="M15.7806 9.85035C16.2016 9.56722 16.7629 9.56722 17.1839 9.85035C18.0372 10.4059 19.0802 10.7858 20.1231 10.7858C21.1433 10.7858 22.2242 10.3987 23.0586 9.85035C23.5099 9.54571 24.1243 9.5708 24.5453 9.91128C25.0914 10.3378 25.7779 10.6639 26.4644 10.8145C27.1167 10.9578 27.5225 11.5743 27.3708 12.1907C27.2191 12.8072 26.5668 13.1907 25.9144 13.0473C24.9853 12.843 24.2116 12.4559 23.7071 12.1513C22.6073 12.7104 21.3747 13.0796 20.1231 13.0796C18.9133 13.0796 17.8248 12.7247 17.0739 12.4022C16.8539 12.3054 16.6529 12.2122 16.4822 12.1262C16.3115 12.2122 16.1143 12.309 15.8906 12.4022C15.1396 12.7247 14.0511 13.0796 12.8413 13.0796C11.5897 13.0796 10.3571 12.7104 9.25729 12.1549C8.74908 12.4559 7.97917 12.8466 7.04998 13.0509C6.39765 13.1942 5.74532 12.8108 5.59362 12.1943C5.44192 11.5779 5.84773 10.9614 6.50006 10.818C7.18273 10.6639 7.87298 10.3378 8.41533 9.91128C8.83631 9.5708 9.45071 9.5493 9.90203 9.85035C10.744 10.3987 11.8211 10.7858 12.8413 10.7858C13.8843 10.7858 14.9272 10.4059 15.7806 9.85035ZM17.1839 20.1723C18.0372 20.7279 19.0802 21.1078 20.1231 21.1078C21.1433 21.1078 22.2242 20.7207 23.0586 20.1723C23.5099 19.8677 24.1243 19.8928 24.5453 20.2333C25.0914 20.6598 25.7779 20.9859 26.4644 21.1364C27.1167 21.2798 27.5225 21.8962 27.3708 22.5127C27.2191 23.1291 26.5668 23.5126 25.9144 23.3693C24.9853 23.165 24.2116 22.7779 23.7071 22.4733C22.6073 23.0324 21.3747 23.4015 20.1231 23.4015C18.9133 23.4015 17.8248 23.0467 17.0739 22.7242C16.8539 22.6274 16.6529 22.5342 16.4822 22.4482C16.3115 22.5342 16.1143 22.631 15.8906 22.7242C15.1396 23.0467 14.0511 23.4015 12.8413 23.4015C11.5897 23.4015 10.3571 23.0324 9.25729 22.4769C8.74908 22.7779 7.97917 23.1686 7.04998 23.3729C6.39765 23.5162 5.74532 23.1327 5.59362 22.5163C5.44192 21.8998 5.84773 21.2834 6.50006 21.14C7.18652 20.9895 7.87298 20.6633 8.41912 20.2368C8.8401 19.8999 9.4545 19.8749 9.90582 20.1759C10.744 20.7207 11.8211 21.1078 12.8413 21.1078C13.8843 21.1078 14.9272 20.7279 15.7806 20.1723C16.2016 19.8892 16.7629 19.8892 17.1839 20.1723ZM17.1839 15.0113C18.0372 15.5669 19.0802 15.9468 20.1231 15.9468C21.1433 15.9468 22.2242 15.5597 23.0586 15.0113C23.5099 14.7067 24.1243 14.7318 24.5453 15.0723C25.0914 15.4988 25.7779 15.8249 26.4644 15.9754C27.1167 16.1188 27.5225 16.7353 27.3708 17.3517C27.2191 17.9682 26.5668 18.3516 25.9144 18.2083C24.9853 18.004 24.2116 17.6169 23.7071 17.3123C22.6073 17.8714 21.3747 18.2405 20.1231 18.2405C18.9133 18.2405 17.8248 17.8857 17.0739 17.5632C16.8539 17.4664 16.6529 17.3732 16.4822 17.2872C16.3115 17.3732 16.1143 17.47 15.8906 17.5632C15.1396 17.8857 14.0511 18.2405 12.8413 18.2405C11.5897 18.2405 10.3571 17.8714 9.25729 17.3159C8.74908 17.6169 7.97917 18.0076 7.04998 18.2119C6.39765 18.3552 5.74532 17.9717 5.59362 17.3553C5.44192 16.7388 5.84773 16.1224 6.50006 15.979C7.18652 15.8285 7.87298 15.5024 8.41912 15.0759C8.8401 14.7354 9.4545 14.7139 9.90582 15.0149C10.744 15.5597 11.8211 15.9468 12.8413 15.9468C13.8843 15.9468 14.9272 15.5669 15.7806 15.0113C16.2016 14.7282 16.7629 14.7282 17.1839 15.0113Z" fill="white"/>
</g>
<defs>
<radialGradient id="paint0_radial_6_15" cx="0" cy="0" r="1" gradientUnits="userSpaceOnUse" gradientTransform="translate(16.8539 43.4457) scale(13.1086 6.55431)">
<stop offset="0.1" stop-opacity="0.4"/>
<stop offset="1" stop-opacity="0.05"/>
</radialGradient>
</defs>
</svg>
