<svg width="34" height="50" viewBox="0 0 34 50" fill="none" xmlns="http://www.w3.org/2000/svg">
<path d="M16.8539 50C24.0936 50 29.9625 47.0655 29.9625 43.4457C29.9625 39.8259 24.0936 36.8914 16.8539 36.8914C9.61423 36.8914 3.7453 39.8259 3.7453 43.4457C3.7453 47.0655 9.61423 50 16.8539 50Z" fill="url(#paint0_radial_6_16)"/>
<path d="M33.7079 16.8539C33.7079 23.8077 25.2809 33.7079 18.4145 43.0712C17.5031 44.3196 16.2047 44.3196 15.2934 43.0712C8.42697 33.7079 0 23.995 0 16.8539C0 7.54057 7.54057 0 16.8539 0C26.1673 0 33.7079 7.54057 33.7079 16.8539Z" fill="#1D4ED8"/>
<path opacity="0.25" d="M16.8539 0C7.54057 0 0 7.54057 0 16.8539C0 23.995 8.42697 33.7079 15.2934 43.0712C16.2297 44.3446 17.5031 44.3196 18.4145 43.0712C25.2809 33.7079 33.7079 23.8077 33.7079 16.8539C33.7079 7.54057 26.1673 0 16.8539 0ZM16.8539 1.24844C25.4931 1.24844 32.4594 8.21473 32.4594 16.8539C32.4594 19.8502 30.5868 23.9451 27.7403 28.3895C24.9064 32.834 20.8614 37.628 17.4032 42.3346C17.1536 42.6717 16.9913 42.8464 16.8539 42.9962C16.7166 42.8464 16.5543 42.6717 16.3046 42.3346C12.834 37.6155 9.25094 32.8464 6.26717 28.427C3.27091 24.0075 1.24844 19.9126 1.24844 16.8539C1.24844 8.21473 8.21473 1.24844 16.8539 1.24844Z" fill="#1E3A8A"/>
<path d="M16.9994 9C17.4432 9 17.8526 9.23437 18.0776 9.61875L24.8281 21.1187C25.0562 21.5062 25.0562 21.9844 24.8344 22.3719C24.6125 22.7594 24.1968 23 23.7499 23H10.2489C9.80203 23 9.38637 22.7594 9.16448 22.3719C8.94259 21.9844 8.94572 21.5031 9.17073 21.1187L15.9212 9.61875C16.1462 9.23437 16.5556 9 16.9994 9ZM16.9994 13C16.5838 13 16.2494 13.3344 16.2494 13.75V17.25C16.2494 17.6656 16.5838 18 16.9994 18C17.4151 18 17.7495 17.6656 17.7495 17.25V13.75C17.7495 13.3344 17.4151 13 16.9994 13ZM17.9995 20C17.9995 19.4469 17.5526 19 16.9994 19C16.4463 19 15.9993 19.4469 15.9993 20C15.9993 20.5531 16.4463 21 16.9994 21C17.5526 21 17.9995 20.5531 17.9995 20Z" fill="white"/>
<defs>
<radialGradient id="paint0_radial_6_16" cx="0" cy="0" r="1" gradientUnits="userSpaceOnUse" gradientTransform="translate(16.8539 43.4457) scale(13.1086 6.55431)">
<stop offset="0.1" stop-opacity="0.4"/>
<stop offset="1" stop-opacity="0.05"/>
</radialGradient>
</defs>
</svg>
